<?xml version="1.0" standalone="no"?>
<!DOCTYPE svg PUBLIC "-//W3C//DTD SVG 20010904//EN"
 "http://www.w3.org/TR/2001/REC-SVG-20010904/DTD/svg10.dtd">
<svg version="1.0" xmlns="http://www.w3.org/2000/svg"
 width="710.000000pt" height="357.000000pt" viewBox="0 0 710.000000 357.000000"
 preserveAspectRatio="xMidYMid meet">

<g transform="translate(0.000000,357.000000) scale(0.100000,-0.100000)"
fill="#000000" stroke="none">
<path d="M4982 2950 c-100 -61 -95 -211 8 -262 35 -18 33 -18 -140 -18 -170 0
-176 -1 -212 -25 -71 -48 -86 -150 -32 -215 46 -54 46 -54 359 -51 l290 2 -46
-29 c-103 -66 -97 -205 11 -259 l44 -23 -429 0 c-414 0 -431 -1 -463 -20 -34
-21 -72 -87 -72 -125 0 -38 38 -104 72 -125 29 -17 51 -20 173 -21 127 -1 137
-2 109 -14 -44 -20 -81 -67 -89 -115 -5 -32 -2 -50 17 -87 33 -66 70 -83 178
-83 l85 0 -35 -18 c-103 -51 -108 -201 -8 -262 32 -19 52 -20 792 -20 718 0
758 1 751 18 -4 9 -10 41 -13 69 -4 50 -2 55 29 84 33 31 33 31 16 61 -21 37
-21 47 0 70 17 19 17 21 0 50 -9 17 -17 50 -17 77 l0 48 42 6 c56 8 93 36 93
73 l0 29 -870 5 -870 5 856 5 857 5 -100 120 c-55 65 -104 130 -109 142 l-9
23 -472 0 -472 0 44 23 c54 27 82 71 82 131 0 57 -26 101 -77 132 l-40 24 469
0 469 0 -6 40 c-7 53 -57 158 -112 235 -120 169 -308 268 -578 304 -43 6 -183
11 -310 11 -214 0 -235 -2 -265 -20z"/>
<path d="M4671 2850 c-47 -125 -48 -130 -17 -130 16 0 26 6 26 15 0 21 79 21
94 -1 7 -9 22 -14 33 -12 21 3 20 5 -15 103 -33 90 -40 100 -63 103 -25 3 -29
-3 -58 -78z m74 -27 c5 -20 3 -23 -19 -23 -24 0 -24 2 -14 31 11 32 21 29 33
-8z"/>
<path d="M746 2660 c-74 -29 -101 -59 -117 -130 -12 -53 7 -115 48 -150 40
-36 85 -55 173 -77 86 -21 110 -36 110 -72 0 -16 -6 -33 -12 -39 -23 -18 -76
-23 -117 -12 -33 9 -45 18 -59 48 l-17 37 -65 0 -65 0 1 -47 c0 -59 35 -107
101 -139 40 -20 63 -24 143 -24 83 0 102 3 145 25 84 44 120 150 78 237 -21
46 -57 67 -176 104 -110 35 -153 64 -143 96 19 60 138 55 174 -7 16 -28 21
-30 78 -30 71 0 78 8 62 66 -30 109 -205 168 -342 114z"/>
<path d="M1319 2666 c-63 -22 -104 -54 -129 -98 -22 -38 -25 -57 -28 -173 -5
-167 7 -224 57 -274 110 -110 338 -89 409 38 12 21 22 55 22 75 l0 37 -67 -3
c-59 -3 -68 -6 -71 -23 -8 -43 -42 -65 -99 -65 -44 0 -58 5 -78 25 -24 23 -25
29 -25 160 0 134 0 136 26 160 22 20 38 25 80 25 49 0 55 -3 81 -35 27 -33 31
-35 92 -35 l64 0 -6 42 c-13 96 -107 158 -237 158 -30 -1 -71 -7 -91 -14z"/>
<path d="M1747 2663 c-4 -3 -7 -141 -7 -305 l0 -299 68 3 67 3 3 238 2 237 70
0 c38 0 80 -5 94 -11 34 -16 52 -62 37 -95 -11 -26 -64 -54 -100 -54 -25 0
-36 -35 -28 -91 5 -36 86 -177 125 -216 16 -16 148 -18 157 -3 4 6 -24 53 -60
106 l-67 95 48 42 c55 48 74 88 74 154 -1 98 -59 173 -150 192 -55 12 -322 15
-333 4z"/>
<path d="M2315 2658 c-3 -7 -4 -144 -3 -303 l3 -290 230 0 230 0 0 60 0 60
-157 3 -158 3 0 59 0 59 133 3 132 3 0 60 0 60 -132 3 -133 3 0 49 0 50 150 0
151 0 -3 63 -3 62 -218 3 c-170 2 -219 0 -222 -10z"/>
<path d="M2867 2664 c-4 -4 -7 -142 -7 -306 l0 -298 230 0 230 0 0 65 0 65
-160 0 -160 0 0 60 0 60 128 0 c86 0 132 4 140 12 7 7 12 30 12 53 0 23 -5 46
-12 53 -8 8 -54 12 -140 12 l-128 0 0 50 0 49 153 3 152 3 0 60 0 60 -216 3
c-118 1 -218 -1 -222 -4z"/>
<path d="M3395 2657 c-3 -7 -4 -143 -3 -302 l3 -290 67 -3 68 -3 2 173 3 173
106 -170 106 -170 67 -3 66 -3 -2 303 -3 303 -65 0 -65 0 -5 -168 -5 -168 -94
153 c-52 84 -101 161 -109 171 -19 21 -130 25 -137 4z"/>
<path d="M4376 2619 c-23 -18 -26 -27 -26 -85 0 -79 10 -99 53 -113 54 -18
117 13 117 58 0 17 -47 13 -54 -5 -4 -10 -15 -14 -33 -12 -27 3 -28 5 -28 63
0 55 2 60 24 63 13 2 28 -1 34 -7 16 -16 57 -14 57 3 0 23 -50 56 -85 56 -18
0 -44 -9 -59 -21z"/>
<path d="M4925 2315 c-21 -20 -25 -34 -25 -85 0 -51 4 -65 25 -85 55 -56 155
-18 155 60 0 35 0 35 -45 35 -38 0 -45 -3 -45 -20 0 -13 7 -20 20 -20 18 0 19
-3 10 -20 -12 -22 -40 -26 -58 -8 -16 16 -16 100 0 116 16 16 43 15 58 -3 14
-17 60 -20 60 -5 0 6 -11 22 -25 35 -18 19 -35 25 -65 25 -30 0 -47 -6 -65
-25z"/>
<path d="M4110 2020 c0 -15 7 -20 30 -20 l29 0 3 -87 c3 -80 5 -88 23 -88 18
0 20 8 23 88 l3 87 29 0 c23 0 30 5 30 20 0 18 -7 20 -85 20 -78 0 -85 -2 -85
-20z"/>
<path d="M1517 1920 c-87 -22 -162 -82 -191 -152 -13 -29 -16 -77 -16 -220 0
-157 3 -189 19 -223 24 -52 74 -98 136 -127 71 -32 199 -32 272 1 91 40 162
139 151 211 -3 24 -7 25 -80 28 l-77 3 -11 -39 c-13 -51 -45 -72 -109 -72 -62
0 -98 16 -117 51 -20 39 -20 299 0 337 20 38 58 56 116 55 56 -1 95 -21 112
-59 10 -22 16 -24 85 -24 85 0 93 8 74 71 -17 55 -71 112 -132 139 -59 25
-173 35 -232 20z"/>
<path d="M777 1692 l-177 -227 2 -70 3 -70 172 -3 172 -2 3 -73 3 -72 80 0 80
0 3 73 3 72 50 0 50 0 -3 78 -3 77 -47 3 -48 3 0 220 0 219 -82 0 -83 0 -178
-228z m173 -112 l0 -100 -81 0 c-78 0 -81 1 -68 19 64 89 135 180 142 181 4 0
7 -45 7 -100z"/>
<path d="M2172 1897 c-11 -13 -262 -682 -262 -698 0 -5 38 -9 84 -9 l84 0 22
60 23 61 135 -3 135 -3 16 -45 c9 -25 20 -51 24 -58 11 -17 167 -17 167 1 0 6
-58 167 -128 357 l-127 345 -81 3 c-58 2 -84 -1 -92 -11z m132 -325 c20 -57
36 -106 36 -108 0 -2 -36 -4 -80 -4 -57 0 -80 4 -80 13 0 27 75 225 81 214 4
-7 23 -59 43 -115z"/>
<path d="M2686 1895 c-8 -21 -8 -668 0 -689 5 -13 22 -16 84 -16 72 0 78 2 84
23 3 12 6 141 6 285 l0 264 96 -4 c91 -3 97 -5 120 -31 55 -64 16 -141 -77
-153 -58 -8 -65 -22 -56 -109 5 -46 16 -70 79 -162 l73 -108 93 -3 c77 -2 92
0 92 12 0 9 -35 66 -77 127 l-77 112 24 16 c87 58 124 122 123 215 -2 99 -40
168 -116 209 -39 20 -57 22 -253 25 -189 3 -212 2 -218 -13z"/>
<path d="M3355 1898 c-3 -7 -4 -168 -3 -358 l3 -345 275 0 275 0 3 49 c2 27 1
60 -3 73 l-5 23 -191 0 -190 0 3 73 3 72 160 5 160 5 3 64 c2 45 -1 67 -10 72
-7 5 -82 9 -165 9 l-153 0 0 60 0 60 183 2 182 3 0 70 0 70 -263 3 c-205 2
-264 0 -267 -10z"/>
<path d="M4404 1742 c-8 -6 -30 -58 -82 -199 -2 -8 5 -13 21 -13 14 0 27 7 31
15 4 10 20 15 50 15 30 0 46 -5 50 -15 3 -8 15 -15 27 -15 26 0 23 14 -24 133
-30 78 -48 97 -73 79z m36 -114 c0 -11 -8 -18 -20 -18 -23 0 -23 0 -9 37 8 22
12 24 19 13 6 -8 10 -23 10 -32z"/>
<path d="M4506 1429 c-24 -19 -26 -27 -26 -89 0 -62 2 -70 26 -89 50 -40 144
-17 144 34 0 27 -32 31 -48 7 -31 -48 -72 -20 -72 49 0 62 20 80 62 56 39 -22
58 -22 58 2 0 48 -95 68 -144 30z"/>
<path d="M4512 1164 c-70 -36 -101 -127 -67 -198 48 -100 192 -114 258 -24 45
60 27 166 -35 211 -36 27 -114 32 -156 11z"/>
<path d="M4254 1153 c-49 -10 -75 -79 -60 -157 12 -62 96 -87 150 -45 23 18
27 28 24 63 -3 41 -3 41 -43 41 -30 0 -41 -4 -43 -18 -3 -12 4 -20 18 -24 30
-8 19 -28 -16 -28 -29 0 -29 0 -29 60 0 57 1 60 26 63 14 2 31 -4 39 -12 18
-23 50 -20 50 4 0 33 -66 64 -116 53z"/>
<path d="M5064 861 c-53 -32 -74 -68 -74 -126 0 -62 28 -111 79 -137 30 -15
61 -16 280 -11 305 7 296 4 381 144 32 53 66 109 75 123 l17 26 -363 0 c-339
0 -366 -1 -395 -19z"/>
<path d="M4774 825 c-8 -21 4 -35 31 -35 23 0 24 -3 27 -82 3 -77 5 -83 26
-86 21 -3 22 -1 22 82 l0 86 30 0 c25 0 30 4 30 25 0 25 -1 25 -80 25 -61 0
-82 -3 -86 -15z"/>
</g>
</svg>
